<svg width="37" height="31" viewBox="0 0 37 31" fill="none" xmlns="http://www.w3.org/2000/svg">
<path d="M12.7014 18.788C12.7014 18.3942 12.5102 18.0165 12.17 17.7381C11.8297 17.4596 11.3682 17.3032 10.8869 17.3032C10.4057 17.3032 9.94416 17.4596 9.60387 17.7381C9.26359 18.0165 9.07241 18.3942 9.07241 18.788C9.07241 19.1818 9.26359 19.5595 9.60387 19.838C9.94416 20.1164 10.4057 20.2729 10.8869 20.2729C11.3682 20.2729 11.8297 20.1164 12.17 19.838C12.5102 19.5595 12.7014 19.1818 12.7014 18.788ZM27.2174 18.788C27.2174 18.3942 27.0263 18.0165 26.686 17.7381C26.3457 17.4596 25.8842 17.3032 25.4029 17.3032C24.9217 17.3032 24.4602 17.4596 24.1199 17.7381C23.7796 18.0165 23.5884 18.3942 23.5884 18.788C23.5884 19.1818 23.7796 19.5595 24.1199 19.838C24.4602 20.1164 24.9217 20.2729 25.4029 20.2729C25.8842 20.2729 26.3457 20.1164 26.686 19.838C27.0263 19.5595 27.2174 19.1818 27.2174 18.788ZM12.7014 5.4243H11.1409C10.092 5.42413 9.07546 5.72143 8.26426 6.2656C7.45306 6.80976 6.89737 7.56716 6.69179 8.40886L6.33252 9.87887H4.98978C4.62886 9.87887 4.28271 9.9962 4.0275 10.2051C3.77228 10.4139 3.62891 10.6972 3.62891 10.9925C3.62891 11.2879 3.77228 11.5711 4.0275 11.78C4.28271 11.9888 4.62886 12.1062 4.98978 12.1062H5.78816L5.58675 12.9377C5.02174 13.0729 4.52553 13.3543 4.17253 13.7399C3.81954 14.1254 3.62879 14.5941 3.62891 15.0759V22.5002C3.62891 23.0909 3.91566 23.6574 4.42609 24.0751C4.93652 24.4928 5.62881 24.7274 6.35066 24.7274H7.25791V26.2123C7.25791 26.6061 7.44908 26.9838 7.78937 27.2622C8.12965 27.5407 8.59118 27.6972 9.07241 27.6972C9.55365 27.6972 10.0152 27.5407 10.3555 27.2622C10.6957 26.9838 10.8869 26.6061 10.8869 26.2123V24.7274H25.4029V26.2123C25.4029 26.6061 25.5941 26.9838 25.9344 27.2622C26.2747 27.5407 26.7362 27.6972 27.2174 27.6972C27.6987 27.6972 28.1602 27.5407 28.5005 27.2622C28.8408 26.9838 29.0319 26.6061 29.0319 26.2123V24.7274H29.9392C30.661 24.7274 31.3533 24.4928 31.8638 24.0751C32.3742 23.6574 32.6609 23.0909 32.6609 22.5002V15.0759C32.6611 14.5941 32.4703 14.1254 32.1173 13.7399C31.7643 13.3543 31.2681 13.0729 30.7031 12.9377L30.4999 12.1062H31.3001L31.4852 12.0958C31.811 12.0592 32.1095 11.9273 32.3257 11.7244C32.5418 11.5216 32.6609 11.2616 32.6609 10.9925L32.6482 10.8411C32.6035 10.5744 32.4423 10.3301 32.1945 10.1532C31.9467 9.97634 31.6289 9.87888 31.3001 9.87887H29.9555L29.5981 8.40886C29.3925 7.56716 28.8368 6.80976 28.0256 6.2656C27.2144 5.72143 26.1978 5.42413 25.1489 5.4243H23.5884V3.56823C23.5884 3.27288 23.4451 2.98962 23.1898 2.78077C22.9346 2.57192 22.5885 2.45459 22.2276 2.45459H14.0623C13.7014 2.45459 13.3552 2.57192 13.1 2.78077C12.8448 2.98962 12.7014 3.27288 12.7014 3.56823V5.4243ZM14.5159 5.4243V3.93945H21.7739V5.4243H14.5159ZM6.35066 14.3334H29.9392C30.1798 14.3334 30.4106 14.4117 30.5807 14.5509C30.7509 14.6901 30.8464 14.879 30.8464 15.0759V22.5002C30.8464 22.6971 30.7509 22.8859 30.5807 23.0251C30.4106 23.1644 30.1798 23.2426 29.9392 23.2426H6.35066C6.11004 23.2426 5.87928 23.1644 5.70914 23.0251C5.53899 22.8859 5.44341 22.6971 5.44341 22.5002V15.0759C5.44341 14.879 5.53899 14.6901 5.70914 14.5509C5.87928 14.4117 6.11004 14.3334 6.35066 14.3334ZM11.1409 6.90916H25.1489C25.7782 6.90913 26.3881 7.08754 26.8747 7.41403C27.3613 7.74052 27.6947 8.19492 27.818 8.6999L28.8342 12.8486H7.45751L8.47181 8.6999C8.59509 8.19517 8.92818 7.74096 9.41445 7.4145C9.90072 7.08804 10.5102 6.90947 11.1391 6.90916H11.1409Z" fill="white"/>
</svg>
